<svg data-v-423bf9ae="" xmlns="http://www.w3.org/2000/svg" viewBox="0 0 367.0888240488535 60" class="font"><!----><!----><!----><g data-v-423bf9ae="" id="9202103a-21ee-4967-a847-ef5ea6cd418c" fill="white" transform="matrix(4.633204701445071,0,0,4.633204701445071,-2.270273335684152,-15.243242814174394)"><path d="M6.23 6.47L6.23 6.47L6.23 6.47Q5.96 5.95 5.60 5.67L5.60 5.67L5.60 5.67Q5.24 5.39 4.87 5.29L4.87 5.29L4.87 5.29Q4.49 5.19 4.15 5.26L4.15 5.26L4.15 5.26Q3.81 5.33 3.58 5.50L3.58 5.50L3.58 5.50Q3.36 5.67 3.30 5.91L3.30 5.91L3.30 5.91Q3.25 6.15 3.44 6.40L3.44 6.40L3.44 6.40Q3.71 6.73 4.20 7.13L4.20 7.13L4.20 7.13Q4.69 7.53 5.21 7.98L5.21 7.98L5.21 7.98Q5.74 8.43 6.22 8.90L6.22 8.90L6.22 8.90Q6.69 9.38 6.92 9.87L6.92 9.87L6.92 9.87Q7.20 10.50 7.15 11.19L7.15 11.19L7.15 11.19Q7.11 11.89 6.75 12.46L6.75 12.46L6.75 12.46Q6.40 13.03 5.74 13.41L5.74 13.41L5.74 13.41Q5.08 13.78 4.14 13.78L4.14 13.78L4.14 13.78Q3.58 13.78 3.04 13.60L3.04 13.60L3.04 13.60Q2.51 13.43 2.03 13.11L2.03 13.11L2.03 13.11Q1.55 12.80 1.16 12.36L1.16 12.36L1.16 12.36Q0.76 11.93 0.49 11.40L0.49 11.40L1.96 10.32L1.96 10.32Q2.09 10.58 2.28 10.84L2.28 10.84L2.28 10.84Q2.48 11.09 2.72 11.31L2.72 11.31L2.72 11.31Q2.95 11.52 3.21 11.68L3.21 11.68L3.21 11.68Q3.47 11.84 3.71 11.91L3.71 11.91L3.71 11.91Q4.13 12.03 4.50 11.94L4.50 11.94L4.50 11.94Q4.87 11.86 5.08 11.63L5.08 11.63L5.08 11.63Q5.29 11.40 5.29 11.05L5.29 11.05L5.29 11.05Q5.29 10.71 4.97 10.30L4.97 10.30L4.97 10.30Q4.62 9.87 4.03 9.41L4.03 9.41L4.03 9.41Q3.44 8.95 2.87 8.43L2.87 8.43L2.87 8.43Q2.30 7.91 1.88 7.31L1.88 7.31L1.88 7.31Q1.46 6.71 1.46 5.99L1.46 5.99L1.46 5.99Q1.46 5.45 1.68 4.98L1.68 4.98L1.68 4.98Q1.90 4.52 2.27 4.20L2.27 4.20L2.27 4.20Q2.65 3.88 3.14 3.70L3.14 3.70L3.14 3.70Q3.63 3.51 4.16 3.51L4.16 3.51L4.16 3.51Q4.83 3.51 5.41 3.70L5.41 3.70L5.41 3.70Q5.99 3.89 6.36 4.24L6.36 4.24L6.36 4.24Q6.62 4.48 6.76 4.77L6.76 4.77L6.76 4.77Q6.90 5.07 6.90 5.37L6.90 5.37L6.90 5.37Q6.90 5.67 6.74 5.96L6.74 5.96L6.74 5.96Q6.58 6.24 6.23 6.47ZM13.30 10.72L13.30 10.72L13.30 10.72Q12.54 10.92 11.92 10.86L11.92 10.86L11.92 10.86Q11.30 10.81 10.90 10.56L10.90 10.56L10.90 10.56Q10.50 10.32 10.37 9.91L10.37 9.91L10.37 9.91Q10.23 9.49 10.44 8.97L10.44 8.97L10.44 8.97Q10.88 9.34 11.45 9.37L11.45 9.37L11.45 9.37Q12.03 9.41 12.56 9.35L12.56 9.35L12.56 9.35Q13.01 9.31 13.24 9.16L13.24 9.16L13.24 9.16Q13.47 9.00 13.52 8.80L13.52 8.80L13.52 8.80Q13.58 8.60 13.48 8.37L13.48 8.37L13.48 8.37Q13.38 8.15 13.17 7.97L13.17 7.97L13.17 7.97Q12.95 7.78 12.64 7.67L12.64 7.67L12.64 7.67Q12.32 7.56 11.94 7.57L11.94 7.57L11.94 7.57Q11.54 7.60 11.17 7.77L11.17 7.77L11.17 7.77Q10.81 7.94 10.53 8.23L10.53 8.23L10.53 8.23Q10.25 8.53 10.08 8.92L10.08 8.92L10.08 8.92Q9.91 9.31 9.90 9.79L9.90 9.79L9.90 9.79Q9.88 10.18 9.99 10.56L9.99 10.56L9.99 10.56Q10.09 10.93 10.30 11.25L10.30 11.25L10.30 11.25Q10.51 11.56 10.81 11.78L10.81 11.78L10.81 11.78Q11.10 12.00 11.48 12.05L11.48 12.05L11.48 12.05Q12.01 12.15 12.57 11.98L12.57 11.98L12.57 11.98Q13.13 11.82 13.57 11.37L13.57 11.37L15.04 12.08L15.04 12.08Q14.46 12.94 13.68 13.31L13.68 13.31L13.68 13.31Q12.89 13.68 11.89 13.68L11.89 13.68L11.89 13.68Q10.95 13.68 10.24 13.35L10.24 13.35L10.24 13.35Q9.53 13.02 9.07 12.47L9.07 12.47L9.07 12.47Q8.60 11.93 8.37 11.24L8.37 11.24L8.37 11.24Q8.13 10.54 8.15 9.82L8.15 9.82L8.15 9.82Q8.16 9.10 8.43 8.41L8.43 8.41L8.43 8.41Q8.69 7.71 9.20 7.18L9.20 7.18L9.20 7.18Q9.76 6.58 10.51 6.33L10.51 6.33L10.51 6.33Q11.26 6.08 12.04 6.08L12.04 6.08L12.04 6.08Q12.91 6.08 13.54 6.37L13.54 6.37L13.54 6.37Q14.17 6.66 14.56 7.12L14.56 7.12L14.56 7.12Q14.95 7.57 15.08 8.13L15.08 8.13L15.08 8.13Q15.20 8.68 15.06 9.20L15.06 9.20L15.06 9.20Q14.91 9.72 14.48 10.13L14.48 10.13L14.48 10.13Q14.04 10.54 13.30 10.72ZM18.14 6.27L18.14 7.11L18.14 7.11Q18.26 6.86 18.49 6.68L18.49 6.68L18.49 6.68Q18.72 6.50 19.00 6.37L19.00 6.37L19.00 6.37Q19.28 6.24 19.57 6.17L19.57 6.17L19.57 6.17Q19.87 6.10 20.12 6.09L20.12 6.09L20.12 6.09Q20.65 6.06 21.17 6.24L21.17 6.24L21.17 6.24Q21.69 6.41 22.12 6.85L22.12 6.85L22.12 6.85Q22.75 7.50 22.75 8.74L22.75 8.74L22.75 13.52L20.96 13.52L20.96 13.52Q20.96 13.29 20.97 12.88L20.97 12.88L20.97 12.88Q20.97 12.47 20.97 11.99L20.97 11.99L20.97 11.99Q20.97 11.51 20.97 10.99L20.97 10.99L20.97 10.99Q20.97 10.47 20.96 10.01L20.96 10.01L20.96 10.01Q20.94 9.55 20.92 9.18L20.92 9.18L20.92 9.18Q20.89 8.82 20.85 8.65L20.85 8.65L20.85 8.65Q20.73 8.20 20.42 7.98L20.42 7.98L20.42 7.98Q20.10 7.76 19.74 7.76L19.74 7.76L19.74 7.76Q19.26 7.76 19.00 8.02L19.00 8.02L19.00 8.02Q18.73 8.27 18.73 8.69L18.73 8.69L18.73 8.69Q18.56 8.64 18.40 8.46L18.40 8.46L18.40 8.46Q18.23 8.29 18.14 8.09L18.14 8.09L18.14 8.47L18.14 13.52L16.34 13.52L16.34 6.27L18.14 6.27ZM24.91 6.33L24.91 5.15L24.91 5.15Q24.91 4.76 25.05 4.49L25.05 4.49L25.05 4.49Q25.20 4.21 25.45 4.05L25.45 4.05L25.45 4.05Q25.69 3.88 26.01 3.80L26.01 3.80L26.01 3.80Q26.33 3.72 26.67 3.72L26.67 3.72L26.67 6.33L28.29 6.33L28.29 6.33Q28.29 6.61 28.25 6.87L28.25 6.87L28.25 6.87Q28.20 7.14 28.06 7.36L28.06 7.36L28.06 7.36Q27.92 7.57 27.68 7.71L27.68 7.71L27.68 7.71Q27.44 7.84 27.06 7.84L27.06 7.84L26.67 7.84L26.67 11.80L26.67 11.80Q26.67 12.03 26.84 12.12L26.84 12.12L26.84 12.12Q27.01 12.21 27.23 12.20L27.23 12.20L27.23 12.20Q27.45 12.19 27.68 12.10L27.68 12.10L27.68 12.10Q27.90 12.00 28.00 11.83L28.00 11.83L28.00 11.83Q28.18 12.29 28.02 12.65L28.02 12.65L28.02 12.65Q27.86 13.01 27.52 13.22L27.52 13.22L27.52 13.22Q27.17 13.44 26.72 13.50L26.72 13.50L26.72 13.50Q26.26 13.57 25.87 13.43L25.87 13.43L25.87 13.43Q25.47 13.30 25.19 12.96L25.19 12.96L25.19 12.96Q24.91 12.61 24.91 12.03L24.91 12.03L24.91 7.84L24.01 7.84L24.01 6.33L24.91 6.33ZM34.82 13.52L34.82 12.73L34.82 12.73Q34.29 13.24 33.66 13.48L33.66 13.48L33.66 13.48Q33.04 13.72 32.41 13.70L32.41 13.70L32.41 13.70Q31.78 13.68 31.19 13.41L31.19 13.41L31.19 13.41Q30.59 13.15 30.14 12.65L30.14 12.65L30.14 12.65Q29.68 12.15 29.41 11.46L29.41 11.46L29.41 11.46Q29.13 10.77 29.13 9.88L29.13 9.88L29.13 9.88Q29.13 9.04 29.43 8.33L29.43 8.33L29.43 8.33Q29.72 7.62 30.22 7.11L30.22 7.11L30.22 7.11Q30.72 6.61 31.35 6.34L31.35 6.34L31.35 6.34Q31.99 6.06 32.68 6.09L32.68 6.09L32.68 6.09Q33.35 6.12 33.75 6.39L33.75 6.39L33.75 6.39Q34.16 6.66 34.35 7.03L34.35 7.03L34.35 7.03Q34.54 7.39 34.55 7.76L34.55 7.76L34.55 7.76Q34.55 8.13 34.43 8.36L34.43 8.36L34.43 8.36Q34.19 8.01 33.75 7.89L33.75 7.89L33.75 7.89Q33.32 7.77 32.91 7.77L32.91 7.77L32.91 7.77Q32.27 7.77 31.84 8.09L31.84 8.09L31.84 8.09Q31.40 8.40 31.18 8.88L31.18 8.88L31.18 8.88Q30.95 9.35 30.95 9.91L30.95 9.91L30.95 9.91Q30.94 10.46 31.16 10.93L31.16 10.93L31.16 10.93Q31.37 11.41 31.82 11.73L31.82 11.73L31.82 11.73Q32.26 12.04 32.91 12.04L32.91 12.04L32.91 12.04Q33.47 12.04 33.84 11.79L33.84 11.79L33.84 11.79Q34.20 11.54 34.42 11.14L34.42 11.14L34.42 11.14Q34.64 10.74 34.73 10.24L34.73 10.24L34.73 10.24Q34.82 9.74 34.82 9.25L34.82 9.25L34.82 7.04L34.82 6.27L36.64 6.27L36.64 13.52L34.82 13.52ZM39.80 3.72L39.80 3.72L39.80 13.52L38.04 13.52L38.04 5.15L38.04 5.15Q38.04 4.48 38.51 4.10L38.51 4.10L38.51 4.10Q38.99 3.71 39.80 3.72ZM43.78 16.24L43.78 16.24L43.78 16.24Q43.09 16.24 42.51 16.06L42.51 16.06L42.51 16.06Q41.93 15.88 41.55 15.52L41.55 15.52L41.55 15.52Q41.17 15.16 41.04 14.62L41.04 14.62L41.04 14.62Q40.91 14.07 41.12 13.36L41.12 13.36L41.12 13.36Q41.29 13.66 41.56 13.90L41.56 13.90L41.56 13.90Q41.83 14.13 42.17 14.28L42.17 14.28L42.17 14.28Q42.50 14.43 42.87 14.51L42.87 14.51L42.87 14.51Q43.23 14.59 43.58 14.57L43.58 14.57L43.58 14.57Q44.59 14.53 45.12 14.05L45.12 14.05L45.12 14.05Q45.65 13.57 45.65 12.54L45.65 12.54L45.65 12.54Q45.56 12.81 45.32 13.01L45.32 13.01L45.32 13.01Q45.08 13.20 44.79 13.34L44.79 13.34L44.79 13.34Q44.49 13.47 44.18 13.54L44.18 13.54L44.18 13.54Q43.88 13.61 43.62 13.62L43.62 13.62L43.62 13.62Q43.09 13.65 42.57 13.48L42.57 13.48L42.57 13.48Q42.06 13.31 41.64 12.88L41.64 12.88L41.64 12.88Q41.01 12.24 41.01 11.00L41.01 11.00L41.01 6.26L42.78 6.26L42.78 6.26Q42.78 6.50 42.78 6.90L42.78 6.90L42.78 6.90Q42.77 7.29 42.77 7.78L42.77 7.78L42.77 7.78Q42.77 8.26 42.77 8.77L42.77 8.77L42.77 8.77Q42.77 9.28 42.78 9.74L42.78 9.74L42.78 9.74Q42.80 10.21 42.83 10.56L42.83 10.56L42.83 10.56Q42.85 10.92 42.90 11.09L42.90 11.09L42.90 11.09Q43.01 11.54 43.32 11.76L43.32 11.76L43.32 11.76Q43.62 11.98 43.99 11.98L43.99 11.98L43.99 11.98Q44.23 11.98 44.44 11.91L44.44 11.91L44.44 11.91Q44.65 11.83 44.81 11.69L44.81 11.69L44.81 11.69Q44.97 11.55 45.07 11.38L45.07 11.38L45.07 11.38Q45.16 11.20 45.16 10.99L45.16 10.99L45.16 10.99Q45.51 11.09 45.65 11.48L45.65 11.48L45.65 6.26L47.46 6.26L47.46 12.64L47.46 12.64Q47.46 14.29 46.53 15.27L46.53 15.27L46.53 15.27Q45.60 16.24 43.78 16.24ZM50.65 6.27L50.65 6.27L54.92 6.27L51.66 11.98L54.73 11.98L54.73 13.52L48.86 13.52L52.12 7.81L50.97 7.81L50.97 7.81Q50.76 7.81 50.52 7.83L50.52 7.83L50.52 7.83Q50.27 7.85 50.06 7.93L50.06 7.93L50.06 7.93Q49.84 8.01 49.68 8.14L49.68 8.14L49.68 8.14Q49.52 8.27 49.48 8.50L49.48 8.50L49.48 8.50Q49.20 8.25 49.09 7.86L49.09 7.86L49.09 7.86Q48.99 7.48 49.10 7.13L49.10 7.13L49.10 7.13Q49.21 6.78 49.59 6.52L49.59 6.52L49.59 6.52Q49.97 6.27 50.65 6.27ZM61.26 10.72L61.26 10.72L61.26 10.72Q60.51 10.92 59.88 10.86L59.88 10.86L59.88 10.86Q59.26 10.81 58.86 10.56L58.86 10.56L58.86 10.56Q58.46 10.32 58.33 9.91L58.33 9.91L58.33 9.91Q58.20 9.49 58.41 8.97L58.41 8.97L58.41 8.97Q58.84 9.34 59.42 9.37L59.42 9.37L59.42 9.37Q59.99 9.41 60.52 9.35L60.52 9.35L60.52 9.35Q60.97 9.31 61.20 9.16L61.20 9.16L61.20 9.16Q61.43 9.00 61.49 8.80L61.49 8.80L61.49 8.80Q61.54 8.60 61.45 8.37L61.45 8.37L61.45 8.37Q61.35 8.15 61.13 7.97L61.13 7.97L61.13 7.97Q60.91 7.78 60.60 7.67L60.60 7.67L60.60 7.67Q60.28 7.56 59.91 7.57L59.91 7.57L59.91 7.57Q59.50 7.60 59.14 7.77L59.14 7.77L59.14 7.77Q58.77 7.94 58.49 8.23L58.49 8.23L58.49 8.23Q58.21 8.53 58.04 8.92L58.04 8.92L58.04 8.92Q57.88 9.31 57.86 9.79L57.86 9.79L57.86 9.79Q57.85 10.18 57.95 10.56L57.95 10.56L57.95 10.56Q58.06 10.93 58.27 11.25L58.27 11.25L58.27 11.25Q58.48 11.56 58.77 11.78L58.77 11.78L58.77 11.78Q59.07 12.00 59.44 12.05L59.44 12.05L59.44 12.05Q59.98 12.15 60.54 11.98L60.54 11.98L60.54 11.98Q61.10 11.82 61.53 11.37L61.53 11.37L63 12.08L63 12.08Q62.43 12.94 61.64 13.31L61.64 13.31L61.64 13.31Q60.86 13.68 59.85 13.68L59.85 13.68L59.85 13.68Q58.91 13.68 58.20 13.35L58.20 13.35L58.20 13.35Q57.50 13.02 57.03 12.47L57.03 12.47L57.03 12.47Q56.56 11.93 56.33 11.24L56.33 11.24L56.33 11.24Q56.10 10.54 56.11 9.82L56.11 9.82L56.11 9.82Q56.13 9.10 56.39 8.41L56.39 8.41L56.39 8.41Q56.66 7.71 57.16 7.18L57.16 7.18L57.16 7.18Q57.72 6.58 58.47 6.33L58.47 6.33L58.47 6.33Q59.22 6.08 60.00 6.08L60.00 6.08L60.00 6.08Q60.87 6.08 61.50 6.37L61.50 6.37L61.50 6.37Q62.13 6.66 62.52 7.12L62.52 7.12L62.52 7.12Q62.92 7.57 63.04 8.13L63.04 8.13L63.04 8.13Q63.17 8.68 63.02 9.20L63.02 9.20L63.02 9.20Q62.87 9.72 62.44 10.13L62.44 10.13L62.44 10.13Q62.01 10.54 61.26 10.72ZM65.74 11.73L65.74 11.73L65.74 11.73Q66.18 11.73 66.47 12.04L66.47 12.04L66.47 12.04Q66.78 12.33 66.78 12.77L66.78 12.77L66.78 12.77Q66.78 13.20 66.47 13.50L66.47 13.50L66.47 13.50Q66.18 13.80 65.74 13.80L65.74 13.80L65.74 13.80Q65.32 13.80 65.02 13.50L65.02 13.50L65.02 13.50Q64.72 13.20 64.72 12.77L64.72 12.77L64.72 12.77Q64.72 12.33 65.02 12.04L65.02 12.04L65.02 12.04Q65.32 11.73 65.74 11.73ZM74.14 13.52L74.14 12.73L74.14 12.73Q73.61 13.24 72.99 13.48L72.99 13.48L72.99 13.48Q72.37 13.72 71.74 13.70L71.74 13.70L71.74 13.70Q71.11 13.68 70.51 13.41L70.51 13.41L70.51 13.41Q69.92 13.15 69.46 12.65L69.46 12.65L69.46 12.65Q69.01 12.15 68.73 11.46L68.73 11.46L68.73 11.46Q68.46 10.77 68.46 9.88L68.46 9.88L68.46 9.88Q68.46 9.04 68.75 8.33L68.75 8.33L68.75 8.33Q69.05 7.62 69.55 7.11L69.55 7.11L69.55 7.11Q70.04 6.61 70.68 6.34L70.68 6.34L70.68 6.34Q71.32 6.06 72.00 6.09L72.00 6.09L72.00 6.09Q72.67 6.12 73.08 6.39L73.08 6.39L73.08 6.39Q73.49 6.66 73.68 7.03L73.68 7.03L73.68 7.03Q73.86 7.39 73.87 7.76L73.87 7.76L73.87 7.76Q73.88 8.13 73.75 8.36L73.75 8.36L73.75 8.36Q73.51 8.01 73.08 7.89L73.08 7.89L73.08 7.89Q72.65 7.77 72.24 7.77L72.24 7.77L72.24 7.77Q71.60 7.77 71.16 8.09L71.16 8.09L71.16 8.09Q70.73 8.40 70.50 8.88L70.50 8.88L70.50 8.88Q70.28 9.35 70.27 9.91L70.27 9.91L70.27 9.91Q70.27 10.46 70.48 10.93L70.48 10.93L70.48 10.93Q70.70 11.41 71.14 11.73L71.14 11.73L71.14 11.73Q71.58 12.04 72.24 12.04L72.24 12.04L72.24 12.04Q72.80 12.04 73.16 11.79L73.16 11.79L73.16 11.79Q73.53 11.54 73.75 11.14L73.75 11.14L73.75 11.14Q73.96 10.74 74.05 10.24L74.05 10.24L74.05 10.24Q74.14 9.74 74.14 9.25L74.14 9.25L74.14 7.04L74.14 6.27L75.96 6.27L75.96 13.52L74.14 13.52ZM77.64 13.52L77.64 7.74L77.64 7.74Q77.67 7.32 77.82 7.04L77.82 7.04L77.82 7.04Q77.97 6.76 78.20 6.59L78.20 6.59L78.20 6.59Q78.44 6.43 78.76 6.35L78.76 6.35L78.76 6.35Q79.07 6.27 79.45 6.27L79.45 6.27L79.45 13.52L77.64 13.52ZM78.55 3.29L78.55 3.29L78.55 3.29Q79.03 3.29 79.37 3.64L79.37 3.64L79.37 3.64Q79.72 3.98 79.72 4.47L79.72 4.47L79.72 4.47Q79.72 4.96 79.38 5.31L79.38 5.31L79.38 5.31Q79.18 5.50 78.92 5.58L78.92 5.58L78.92 5.58Q78.67 5.66 78.41 5.73L78.41 5.73L78.41 5.73Q78.15 5.81 77.93 5.92L77.93 5.92L77.93 5.92Q77.71 6.02 77.63 6.26L77.63 6.26L77.63 6.26Q77.56 6.03 77.48 5.68L77.48 5.68L77.48 5.68Q77.41 5.33 77.39 4.96L77.39 4.96L77.39 4.96Q77.36 4.58 77.43 4.22L77.43 4.22L77.43 4.22Q77.49 3.86 77.73 3.63L77.73 3.63L77.73 3.63Q78.06 3.29 78.55 3.29Z"></path></g><!----><!----></svg>